# xmcd
#
# Track frame offsets: 
#        150
#        18566
#        44165
#        61307
#        78264
#        106114
#        128859
#        152518
#        185185
#        208319
#        222759
#        235916
#        258483
#
# Disc length: 3630 seconds
#
# Revision: 0
# Processed by: cddbd v1.5.2PL0 Copyright (c) Steve Scherf et al.
# Submitted via: ExactAudioCopy v0.99pb5
#
DISCID=bb0e2c0d
DTITLE=Gillian Welch and David Rawlings - House Concert at Bill and Cl
DTITLE=aire Bost's, Disk 1
DYEAR=1997
DGENRE=Alternative
TTITLE0=Orphan Girl
TTITLE1=One More Dollar
TTITLE2=The Flood of '57
TTITLE3=Wichita
TTITLE4=Barroom Girls
TTITLE5=Ben Dewberry's Final Run
TTITLE6=Annabelle
TTITLE7=My Morphine
TTITLE8=Pass You By
TTITLE9=Acony Bell
TTITLE10=Acony Bell, Part 2 (The Way Merle Travis Wouid Do It)
TTITLE11=Dark as a Dungeon
TTITLE12=Caleb Meyer
EXTD=
EXTT0=
EXTT1=
EXTT2=
EXTT3=
EXTT4=
EXTT5=
EXTT6=
EXTT7=
EXTT8=
EXTT9=
EXTT10=
EXTT11=
EXTT12=
PLAYORDER=
